<svg xmlns="http://www.w3.org/2000/svg" xmlns:xlink="http://www.w3.org/1999/xlink" viewBox="0 0 210 210"><defs><style>.cls-1{isolation:isolate;}.cls-2{fill:#034638;}.cls-3{fill:#055e49;}.cls-4{fill:#e6e9ed;}.cls-5{fill:#84bd00;}.cls-6{fill:#ccd1d9;}.cls-7{fill:#adb8cc;}.cls-8{fill:url(#linear-gradient);}.cls-9{fill:url(#linear-gradient-2);}.cls-10{fill:#e6e6e6;mix-blend-mode:multiply;}.cls-11{fill:#656d78;}.cls-12{fill:#434a54;}.cls-13{fill:#747c85;}.cls-14{fill:#6f7275;}.cls-15{fill:#a0a4a9;}</style><linearGradient id="linear-gradient" x1="136.29" y1="151.88" x2="136.29" y2="139" gradientUnits="userSpaceOnUse"><stop offset="0.5" stop-color="#f6bb42"/><stop offset="0.5" stop-color="#ffce54"/></linearGradient><linearGradient id="linear-gradient-2" x1="72.85" y1="151.88" x2="72.85" y2="139" xlink:href="#linear-gradient"/></defs><title>Artboard 1</title><g class="cls-1"><g id="design"><circle class="cls-2" cx="105" cy="105" r="105"/><path class="cls-3" d="M204,72.82c-.25-.25-.49-.51-.75-.75s-.49-.5-.74-.74-.49-.5-.75-.75-.49-.5-.74-.74l-.74-.74-.75-.75c-.25-.25-.49-.5-.74-.74s-.49-.5-.74-.74-.5-.51-.75-.75l-.74-.74-.75-.75c-.24-.25-.49-.5-.74-.74s-.49-.51-.75-.75-.48-.49-.73-.73l-.75-.75c-.25-.25-.49-.51-.75-.75l-.74-.74-.74-.74c-.25-.25-.49-.51-.75-.75s-.49-.5-.74-.74l-.75-.75-.73-.73-.75-.76-.74-.73-.75-.75-.75-.75c-.24-.25-.48-.5-.74-.74l-.75-.75-.73-.73c-.25-.25-.49-.51-.75-.75l-.74-.74c-.25-.25-.49-.51-.75-.75l-.74-.74c-.25-.25-.49-.5-.74-.74l-.75-.75-.74-.74-.74-.74-.75-.75c-.25-.25-.49-.5-.74-.74s-.5-.51-.75-.75l-.74-.74-.74-.74c-.25-.25-.49-.5-.75-.75s-.49-.5-.75-.75-.49-.5-.74-.74-.48-.5-.73-.73l-.75-.76c-.25-.25-.49-.5-.75-.74s-.49-.5-.74-.74-.49-.51-.75-.75l-.74-.74-.74-.74c-.25-.26-.49-.51-.75-.75s-.48-.5-.74-.74l-.75-.75-.74-.74-.74-.74c-.24-.25-.49-.51-.75-.75l-.74-.74c-.25-.25-.49-.5-.74-.74l-.74-.75a32.72,32.72,0,0,0-23.32-9.94H74.66A33.06,33.06,0,0,0,41.94,49.15l-3.17,94.7c0,.74,0,1.47,0,2.2,0,.16,0,.31,0,.47a31.92,31.92,0,0,0,.53,4.31c0,.11,0,.22.07.33a30.34,30.34,0,0,0,1.17,4.18l.09.24a30.4,30.4,0,0,0,1.78,3.94l.11.2a30.32,30.32,0,0,0,5.08,6.76c.53.56,1.07,1.11,1.64,1.64.2.19.39.4.59.59s.54.55.82.81l.67.67c.52.57,1.07,1.11,1.63,1.64l.6.6c.53.57,1.07,1.11,1.64,1.63.2.2.39.41.59.6s.54.55.82.81c.46.49.93,1,1.42,1.42.27.28.53.55.81.81l.67.68c.48.51,1,1,1.48,1.5a.8.8,0,0,1,.13.13c.26.28.54.54.81.81L48.42,193.47a105,105,0,0,0,157-119.28l-.63-.63Z"/><g id="train"><path class="cls-4" d="M171.23,143.85a30.5,30.5,0,0,1-30.61,31.65H69.38a30.51,30.51,0,0,1-30.61-31.65l3.17-94.7A33.06,33.06,0,0,1,74.66,17.5h60.68a33.08,33.08,0,0,1,32.73,31.65Z"/><path class="cls-5" d="M166.35,161.57a30.56,30.56,0,0,0,4.88-17.72l-.45-13.48H39.22l-.45,13.48a30.64,30.64,0,0,0,4.89,17.72Z"/><path class="cls-6" d="M158.72,96.5A25.56,25.56,0,0,1,133.07,123l-56.14.09A25.56,25.56,0,0,1,51.28,96.59l.87-24A27.72,27.72,0,0,1,79.58,46.09h50.86a27.72,27.72,0,0,1,27.43,26.52Z"/><path class="cls-7" d="M55.67,96.75a21.17,21.17,0,0,0,21.26,22l56.13-.09a21.17,21.17,0,0,0,21.27-22l-.86-23.88a23.23,23.23,0,0,0-23-22.29H79.58a23.23,23.23,0,0,0-23,22.28Z"/><path class="cls-6" d="M138.86,22.89H71.14a9.1,9.1,0,1,0,0,18.19h67.72a9.1,9.1,0,1,0,0-18.19Z"/><path class="cls-4" d="M145,145.44a8.74,8.74,0,1,1-8.74-8.8A8.77,8.77,0,0,1,145,145.44Z"/><path class="cls-6" d="M143.46,145.44a7.17,7.17,0,1,1-7.18-7.23A7.21,7.21,0,0,1,143.46,145.44Z"/><path class="cls-8" d="M142.68,145.44a6.39,6.39,0,1,1-6.4-6.44A6.42,6.42,0,0,1,142.68,145.44Z"/><path class="cls-4" d="M81.59,145.44a8.74,8.74,0,1,1-8.73-8.8A8.77,8.77,0,0,1,81.59,145.44Z"/><path class="cls-6" d="M80,145.44a7.17,7.17,0,1,1-7.16-7.23A7.2,7.2,0,0,1,80,145.44Z"/><path class="cls-9" d="M79.24,145.44A6.39,6.39,0,1,1,72.86,139,6.41,6.41,0,0,1,79.24,145.44Z"/><path class="cls-10" d="M171.17,147.1a30.49,30.49,0,0,1-30.55,28.4H69.38a30.49,30.49,0,0,1-30.55-28.4l-.06,1.75A30.51,30.51,0,0,0,69.38,180.5h71.24a30.5,30.5,0,0,0,30.61-31.65Z"/><polygon class="cls-11" points="56.98 197.41 44.21 197.41 67.79 175.36 80.57 175.36 56.98 197.41"/><polygon class="cls-12" points="56.98 197.41 56.99 206.5 87.81 175.36 80.57 175.36 56.98 197.41"/><rect class="cls-13" x="44.21" y="197.41" width="12.78" height="9.09"/><polygon class="cls-11" points="153.02 197.41 165.79 197.41 142.22 175.36 129.44 175.36 153.02 197.41"/><polygon class="cls-12" points="153.02 197.41 153.02 206.5 122.2 175.36 129.44 175.36 153.02 197.41"/><rect class="cls-13" x="153.02" y="197.41" width="12.78" height="9.09"/><rect class="cls-14" x="69.86" y="189.38" width="71.31" height="2.12"/><polygon class="cls-15" points="133.88 182.38 77.28 182.38 69.86 189.38 141.17 189.38 133.88 182.38"/></g></g></g></svg>