<?xml version="1.0" encoding="utf-8"?>
<svg version="1.1" xmlns="http://www.w3.org/2000/svg" xmlns:xlink="http://www.w3.org/1999/xlink" x="0px" y="0px"
	 viewBox="0 0 210 210" style="enable-background:new 0 0 210 210;" xml:space="preserve">
<style type="text/css">
	.st0{display:none;fill:#034638;}
	.st1{display:none;fill:#055E49;}
	.st2{fill:#8795A0;}
	.st3{fill:#84BD00;}
	.st4{fill:#DAE1E7;}
	.st5{fill:#B8C2CC;}
	.st6{fill:#E6E9ED;}
	.st7{fill:#CCD1D9;}
	.st8{fill:url(#SVGID_1_);}
	.st9{fill:url(#SVGID_2_);}
	.st10{display:none;fill:#E6E6E6;}
	.st11{fill:#656D78;}
	.st12{fill:#434A54;}
	.st13{fill:#747C85;}
	.st14{fill:#6F7275;}
	.st15{fill:#A0A4A9;}
</style>
<g id="design">
	<g>
		<circle class="st0" cx="105" cy="105" r="105"/>
		<path class="st1" d="M204,72.8c-0.2-0.3-0.5-0.5-0.7-0.7c-0.2-0.2-0.5-0.5-0.7-0.7c-0.2-0.3-0.5-0.5-0.8-0.8
			c-0.2-0.2-0.5-0.5-0.7-0.7c-0.2-0.2-0.5-0.5-0.7-0.7c-0.2-0.3-0.5-0.5-0.8-0.8c-0.2-0.2-0.5-0.5-0.7-0.7c-0.2-0.2-0.5-0.5-0.7-0.7
			c-0.2-0.3-0.5-0.5-0.7-0.7c-0.2-0.3-0.5-0.5-0.7-0.7c-0.2-0.3-0.5-0.5-0.7-0.7c-0.2-0.3-0.5-0.5-0.7-0.7c-0.2-0.3-0.5-0.5-0.7-0.7
			c-0.2-0.2-0.5-0.5-0.7-0.7c-0.2-0.3-0.5-0.5-0.7-0.7c-0.2-0.3-0.5-0.5-0.7-0.7c-0.2-0.2-0.5-0.5-0.7-0.7c-0.2-0.3-0.5-0.5-0.7-0.7
			c-0.2-0.3-0.5-0.5-0.7-0.7c-0.2-0.3-0.5-0.5-0.7-0.7c-0.2-0.3-0.5-0.5-0.7-0.7c-0.2-0.2-0.5-0.5-0.7-0.7c-0.2-0.3-0.5-0.5-0.8-0.8
			c-0.2-0.2-0.5-0.5-0.7-0.7c-0.2-0.3-0.5-0.5-0.7-0.7c-0.2-0.3-0.5-0.5-0.7-0.7c-0.2-0.2-0.5-0.5-0.7-0.7c-0.2-0.3-0.5-0.5-0.8-0.7
			c-0.2-0.2-0.5-0.5-0.7-0.7c-0.2-0.3-0.5-0.5-0.7-0.7c-0.2-0.3-0.5-0.5-0.7-0.7c-0.2-0.3-0.5-0.5-0.7-0.7c-0.2-0.3-0.5-0.5-0.7-0.7
			c-0.2-0.2-0.5-0.5-0.7-0.7c-0.2-0.3-0.5-0.5-0.7-0.7c-0.2-0.3-0.5-0.5-0.7-0.7c-0.2-0.2-0.5-0.5-0.7-0.7c-0.2-0.3-0.5-0.5-0.7-0.7
			c-0.2-0.2-0.5-0.5-0.7-0.7c-0.2-0.3-0.5-0.5-0.7-0.7c-0.2-0.2-0.5-0.5-0.7-0.7c-0.2-0.3-0.5-0.5-0.7-0.7c-0.2-0.2-0.5-0.5-0.7-0.7
			c-0.2-0.3-0.5-0.5-0.8-0.7c-0.2-0.3-0.5-0.5-0.7-0.7c-0.2-0.2-0.5-0.5-0.7-0.7c-0.2-0.3-0.5-0.5-0.8-0.8c-0.2-0.2-0.5-0.5-0.7-0.7
			c-0.2-0.2-0.5-0.5-0.7-0.7c-0.2-0.3-0.5-0.5-0.8-0.8c-0.2-0.2-0.5-0.5-0.7-0.7c-0.2-0.3-0.5-0.5-0.7-0.7c-0.2-0.3-0.5-0.5-0.7-0.7
			c-0.2-0.2-0.5-0.5-0.7-0.7c-0.2-0.3-0.5-0.5-0.8-0.8c-0.2-0.3-0.5-0.5-0.7-0.7c-0.2-0.2-0.5-0.5-0.7-0.7c-0.2-0.3-0.5-0.5-0.8-0.8
			c-0.2-0.3-0.5-0.5-0.7-0.7c-0.2-0.2-0.5-0.5-0.7-0.7c-0.2-0.3-0.5-0.5-0.7-0.7c-6-6.1-14.3-9.9-23.3-9.9H74.7
			c-17.4,0-32.1,14.2-32.7,31.7l-3.2,94.7c0,0.7,0,1.5,0,2.2c0,0.2,0,0.3,0,0.5c0.1,1.5,0.3,2.9,0.5,4.3c0,0.1,0,0.2,0.1,0.3
			c0.3,1.4,0.7,2.8,1.2,4.2c0,0.1,0.1,0.2,0.1,0.2c0.5,1.4,1.1,2.7,1.8,3.9c0,0.1,0.1,0.1,0.1,0.2c1.4,2.5,3.1,4.8,5.1,6.8
			c0.5,0.6,1.1,1.1,1.6,1.6c0.2,0.2,0.4,0.4,0.6,0.6c0.3,0.3,0.5,0.6,0.8,0.8c0.2,0.2,0.4,0.4,0.7,0.7c0.5,0.6,1.1,1.1,1.6,1.6
			c0.2,0.2,0.4,0.4,0.6,0.6c0.5,0.6,1.1,1.1,1.6,1.6c0.2,0.2,0.4,0.4,0.6,0.6c0.3,0.3,0.5,0.5,0.8,0.8c0.5,0.5,0.9,1,1.4,1.4
			c0.3,0.3,0.5,0.5,0.8,0.8c0.2,0.2,0.4,0.5,0.7,0.7c0.5,0.5,1,1,1.5,1.5c0,0,0.1,0.1,0.1,0.1c0.3,0.3,0.5,0.5,0.8,0.8l-13.5,12.7
			C64.8,203.9,84.2,210,105,210c58,0,105-47,105-105c0-10.7-1.6-21.1-4.6-30.8c-0.2-0.2-0.4-0.4-0.6-0.6
			C204.5,73.3,204.3,73.1,204,72.8z"/>
		<g id="train">
			<g>
				<path class="st2" d="M171.2,143.9c0.6,17.4-13.2,31.6-30.6,31.6H69.4c-17.4,0-31.2-14.2-30.6-31.6l3.2-94.7
					c0.6-17.4,15.3-31.7,32.7-31.7h60.7c17.4,0,32.1,14.2,32.7,31.7L171.2,143.9z"/>
			</g>
			<path class="st3" d="M166.3,161.6c3.3-5.1,5.1-11.2,4.9-17.7l-0.5-13.5H39.2l-0.5,13.5c-0.2,6.6,1.6,12.7,4.9,17.7H166.3z"/>
			<path class="st4" d="M158.7,96.5c0.5,14.6-11.1,26.5-25.7,26.5l-56.1,0.1c-14.6,0-26.1-11.9-25.6-26.5l0.9-24
				C52.6,58,65,46.1,79.6,46.1h50.9c14.6,0,26.9,11.9,27.4,26.5L158.7,96.5z"/>
			<path class="st5" d="M55.7,96.8c-0.2,5.8,1.9,11.4,5.9,15.5c4,4.2,9.5,6.4,15.3,6.4l56.1-0.1c5.9,0,11.3-2.3,15.3-6.5
				c4-4.2,6.1-9.7,5.9-15.5l-0.9-23.9c-0.4-12.3-10.7-22.3-23-22.3H79.6c-12.3,0-22.6,10-23,22.3L55.7,96.8z"/>
			<path class="st4" d="M138.9,22.9H71.1c-5,0-9.1,4.1-9.1,9.1c0,5,4.1,9.1,9.1,9.1h67.7c5,0,9.1-4.1,9.1-9.1
				C148,27,143.9,22.9,138.9,22.9z"/>
			<g>
				<path class="st6" d="M145,145.4c0,4.9-3.9,8.8-8.7,8.8c-4.8,0-8.7-3.9-8.7-8.8c0-4.9,3.9-8.8,8.7-8.8
					C141.1,136.6,145,140.6,145,145.4z"/>
				<path class="st7" d="M143.5,145.4c0,4-3.2,7.2-7.2,7.2c-4,0-7.2-3.2-7.2-7.2c0-4,3.2-7.2,7.2-7.2
					C140.2,138.2,143.5,141.5,143.5,145.4z"/>
				<linearGradient id="SVGID_1_" gradientUnits="userSpaceOnUse" x1="136.2876" y1="151.8789" x2="136.2876" y2="139.0039">
					<stop  offset="0.5" style="stop-color:#F6BB42"/>
					<stop  offset="0.5031" style="stop-color:#FFCE54"/>
				</linearGradient>
				<path class="st8" d="M142.7,145.4c0,3.6-2.9,6.4-6.4,6.4c-3.5,0-6.4-2.9-6.4-6.4c0-3.6,2.9-6.4,6.4-6.4
					C139.8,139,142.7,141.9,142.7,145.4z"/>
			</g>
			<g>
				<path class="st6" d="M81.6,145.4c0,4.9-3.9,8.8-8.7,8.8c-4.8,0-8.7-3.9-8.7-8.8c0-4.9,3.9-8.8,8.7-8.8
					C77.7,136.6,81.6,140.6,81.6,145.4z"/>
				<path class="st7" d="M80,145.4c0,4-3.2,7.2-7.2,7.2c-4,0-7.2-3.2-7.2-7.2c0-4,3.2-7.2,7.2-7.2C76.8,138.2,80,141.5,80,145.4z"/>
				<linearGradient id="SVGID_2_" gradientUnits="userSpaceOnUse" x1="72.8535" y1="151.8789" x2="72.8535" y2="139.0039">
					<stop  offset="0.5" style="stop-color:#F6BB42"/>
					<stop  offset="0.5031" style="stop-color:#FFCE54"/>
				</linearGradient>
				<path class="st9" d="M79.2,145.4c0,3.6-2.9,6.4-6.4,6.4c-3.5,0-6.4-2.9-6.4-6.4c0-3.6,2.9-6.4,6.4-6.4
					C76.4,139,79.2,141.9,79.2,145.4z"/>
			</g>
			<path class="st10" d="M171.2,147.1c-1.1,15.9-14.2,28.4-30.5,28.4H69.4c-16.3,0-29.4-12.5-30.5-28.4l-0.1,1.8
				c-0.6,17.4,13.2,31.6,30.6,31.6h71.2c17.4,0,31.2-14.2,30.6-31.6L171.2,147.1z"/>
			<g>
				<g>
					<g>
						<polygon class="st11" points="57,197.4 44.2,197.4 67.8,175.4 80.6,175.4 						"/>
						<polygon class="st12" points="57,197.4 57,206.5 87.8,175.4 80.6,175.4 						"/>
						<rect x="44.2" y="197.4" class="st13" width="12.8" height="9.1"/>
					</g>
					<g>
						<polygon class="st11" points="153,197.4 165.8,197.4 142.2,175.4 129.4,175.4 						"/>
						<polygon class="st12" points="153,197.4 153,206.5 122.2,175.4 129.4,175.4 						"/>
						<rect x="153" y="197.4" class="st13" width="12.8" height="9.1"/>
					</g>
				</g>
				<g>
					<rect x="69.9" y="189.4" class="st14" width="71.3" height="2.1"/>
					<polygon class="st15" points="133.9,182.4 77.3,182.4 69.9,189.4 141.2,189.4 					"/>
				</g>
			</g>
		</g>
	</g>
</g>
<g id="text_1_">
</g>
</svg>
