<?xml version="1.0" standalone="no"?>
<!DOCTYPE svg PUBLIC "-//W3C//DTD SVG 20010904//EN"
 "http://www.w3.org/TR/2001/REC-SVG-20010904/DTD/svg10.dtd">
<svg version="1.0" xmlns="http://www.w3.org/2000/svg"
 width="700.000000pt" height="700.000000pt" viewBox="0 0 700.000000 700.000000"
 preserveAspectRatio="xMidYMid meet">
<g transform="translate(0.000000,700.000000) scale(0.100000,-0.100000)"
fill="#000000" stroke="none">
<path d="M2280 6390 c-293 -64 -536 -231 -700 -481 -101 -153 -153 -308 -171
-504 -16 -180 -111 -3127 -106 -3280 5 -153 30 -259 87 -382 145 -313 443
-533 779 -576 l94 -13 -392 -364 -391 -365 0 -152 0 -153 214 0 214 0 244 250
244 250 1104 0 1104 0 244 -250 244 -250 214 0 214 0 0 153 0 152 -391 365
-392 364 94 13 c336 43 634 263 779 576 59 127 82 229 87 392 4 142 -90 3161
-103 3290 -27 278 -163 537 -381 726 -118 103 -268 181 -442 231 l-76 22
-1165 3 c-1103 2 -1170 1 -1250 -17z m2482 -183 c67 -33 112 -80 146 -155 21
-47 24 -65 20 -131 -7 -120 -62 -205 -171 -263 l-42 -23 -1215 0 -1215 0 -45
23 c-107 56 -171 154 -172 266 -2 139 76 253 205 298 49 16 120 17 1242 15
l1190 -2 57 -28z m-203 -765 c385 -102 661 -419 700 -804 12 -112 31 -647 31
-850 0 -206 -39 -351 -136 -501 -56 -87 -179 -210 -256 -255 -88 -52 -206 -99
-288 -116 -102 -20 -1967 -35 -2128 -16 -212 23 -378 101 -521 242 -162 161
-239 339 -248 578 -7 189 24 922 42 1010 35 167 114 315 235 443 165 174 349
264 600 291 19 2 451 3 960 2 921 -2 925 -2 1009 -24z m-2004 -3023 c26 -13
67 -45 91 -72 56 -62 78 -129 72 -216 -8 -112 -61 -191 -160 -240 -146 -73
-314 -16 -390 133 -32 62 -36 166 -9 236 23 60 47 91 103 134 80 60 201 71
293 25z m2107 4 c145 -65 214 -254 144 -397 -55 -112 -161 -173 -285 -164
-107 8 -190 65 -242 165 -19 39 -24 63 -24 123 1 132 62 226 181 276 71 30
153 28 226 -3z m-472 -1388 l115 -115 75 0 75 -1 120 -114 120 -115 -1175 1
-1175 0 120 114 120 115 55 0 55 0 115 115 115 115 575 0 575 0 115 -115z"/>
</g>
</svg>
